<?xml version="1.0" encoding="UTF-8"?>
<!DOCTYPE svg PUBLIC "-//W3C//DTD SVG 1.1//EN" "http://www.w3.org/Graphics/SVG/1.1/DTD/svg11.dtd">
<svg version="1.1" xmlns="http://www.w3.org/2000/svg" xmlns:xlink="http://www.w3.org/1999/xlink" x="0" y="0" width="200" height="200" viewBox="0, 0, 200, 200">
  <g id="g3" display="none">
    <path d="M0,0.25 L172.5,0.25 L172.5,180.75 L0,180.75 L0,0.25 z" fill="#FFFB00" display="none"/>
    <path d="M90,0.5 C106.709,17.086 123.419,33.672 140.128,50.258 L153.78,50.258 L153.78,63.058 L83.618,63.058 L83.618,84.1 L172.5,84.1 L172.5,96.9 L83.618,96.9 L83.618,117.187 L153.78,117.187 L153.78,129.987 L140.514,129.987 L90,180.5 C90,180.5 0,90.5 0,90.5 C0,90.5 90,0.5 90,0.5 L90,0.5 z M90,18.191 C90,18.191 18,90.5 18,90.5 C18,90.5 90,162.5 90,162.5 L122.249,130.251 L70.818,130.251 L70.818,50.22 L83.618,50.22 L83.618,50.238 L122.173,50.225 C111.449,39.546 100.724,28.87 90,18.191 L90,18.191 z" fill="#000000"/>
    <path d="M121.387,96.9 L121.387,84.1 L172.5,84.1 L172.5,96.9 L121.387,96.9 z" fill="#000000"/>
    <path d="M143.893,126.672 L134.842,117.621 L161.963,90.5 L134.842,63.379 L143.893,54.328 L180.036,90.47 L180.006,90.5 L180.036,90.53 L143.893,126.672 z" fill="#000000" display="none"/>
  </g>
  <g id="recreate" display="none">
    <path d="M67.359,145.441 L54.559,145.441 L54.559,54.559 L67.359,54.559 L67.359,145.441 z" fill="#FF40FF"/>
    <path d="M54.559,67.359 L54.559,54.559 L145.441,54.559 L145.441,67.359 L54.559,67.359 z" fill="#FF40FF"/>
    <path d="M54.559,106.4 L54.559,93.6 L145.441,93.6 L145.441,106.4 L54.559,106.4 z" fill="#FF40FF"/>
    <path d="M54.559,145.441 L54.559,132.641 L145.441,132.641 L145.441,145.441 L54.559,145.441 z" fill="#FF40FF"/>
    <path d="M100,9.118 L109.118,18.236 L109.118,18.236 L190.882,100 L100,190.882 L9.118,100 L100,9.118 z M100,27.354 L27.354,100 L100,172.646 L172.646,100 L100,27.354 z" fill="#000000"/>
    <path d="M100,106.4 L100,93.6 L190.882,93.6 L190.882,106.4 L100,106.4 z" fill="#00FDFF"/>
    <path d="M160.601,39.399 L169.652,48.45 L118.102,100 L169.652,151.55 L160.601,160.601 L100,100 L160.601,39.399 z" fill="#FF2600"/>
  </g>
  <g id="recreate_step_2" display="none">
    <path d="M54.559,145.441 L54.559,54.559 L145.441,54.559 L145.441,67.359 L67.359,67.359 L67.359,93.6 L145.441,93.6 L145.441,106.4 L67.359,106.4 L67.359,132.641 L145.441,132.641 L145.441,145.441 L54.559,145.441 z" fill="#FF40FF"/>
    <path d="M100,9.118 L109.118,18.236 L109.118,18.236 L190.882,100 L100,190.882 L9.118,100 L100,9.118 z M100,27.354 L27.354,100 L100,172.646 L172.646,100 L100,27.354 z" fill="#000000"/>
    <path d="M100,106.4 L100,93.6 L190.882,93.6 L190.882,106.4 L100,106.4 z" fill="#00FDFF"/>
    <path d="M160.601,39.399 L169.652,48.45 L118.102,100 L169.652,151.55 L160.601,160.601 L100,100 L160.601,39.399 z" fill="#FF2600"/>
  </g>
  <g id="recreate_step_3" display="none">
    <path d="M100,9.118 L109.118,18.236 L109.118,18.236 L190.882,100 L100,190.882 L9.118,100 L100,9.118 z M127.205,145.441 L72.795,145.441 L100,172.646 L127.205,145.441 z M172.646,100 L140.006,67.359 L67.359,67.359 L67.359,93.6 L145.441,93.6 L145.441,106.4 L67.359,106.4 L67.359,132.641 L140.006,132.641 L172.646,100 z M54.559,72.795 L27.354,100 L54.559,127.205 L54.559,72.795 z M100,27.354 L72.795,54.559 L127.205,54.559 L100,27.354 z" fill="#FF40FF"/>
    <path d="M100,106.4 L100,93.6 L190.882,93.6 L190.882,106.4 L100,106.4 z" fill="#00FDFF"/>
    <path d="M160.601,39.399 L169.652,48.45 L118.102,100 L169.652,151.55 L160.601,160.601 L100,100 L160.601,39.399 z" fill="#FF2600"/>
  </g>
  <g id="recreate_step_4" display="none">
    <path d="M100,9.118 L109.118,18.236 L109.118,18.236 L145.441,54.559 L132.641,67.359 L67.359,67.359 L67.359,93.6 L106.4,93.6 L100,100 L106.4,106.4 L67.359,106.4 L67.359,132.641 L132.641,132.641 L145.441,145.441 L100,190.882 L9.118,100 L100,9.118 z M127.205,145.441 L72.795,145.441 L100,172.646 L127.205,145.441 z M54.559,72.795 L27.354,100 L54.559,127.205 L54.559,72.795 z M100,27.354 L72.795,54.559 L127.205,54.559 L100,27.354 z" fill="#FF40FF"/>
    <path d="M154.492,63.61 L190.882,100 L154.492,136.39 L145.374,127.272 L172.646,100 L145.374,72.728 L154.492,63.61 z" fill="#FF40FF"/>
    <path d="M124.502,93.6 L145.441,93.6 L145.441,106.4 L124.502,106.4 L118.102,100 L124.502,93.6 z" fill="#FF40FF"/>
    <path d="M100,106.4 L100,93.6 L190.882,93.6 L190.882,106.4 L100,106.4 z" fill="#00FDFF"/>
    <path d="M160.601,39.399 L169.652,48.45 L118.102,100 L169.652,151.55 L160.601,160.601 L100,100 L160.601,39.399 z" fill="#FF2600"/>
  </g>
  <g id="recreate_step_5" display="none">
    <path d="M0,0 L200,0 L200,200 L0,200 L0,0 z" fill="#FFFB00"/>
    <path d="M100,9.118 L109.118,18.236 L109.118,18.236 L145.441,54.559 L132.641,67.359 L67.359,67.359 L67.359,93.6 L106.4,93.6 L100,100 L106.4,106.4 L67.359,106.4 L67.359,132.641 L132.641,132.641 L145.441,145.441 L100,190.882 L9.118,100 L100,9.118 z M127.205,145.441 L72.795,145.441 L100,172.646 L127.205,145.441 z M54.559,72.795 L27.353,100 L54.559,127.205 L54.559,72.795 z M100,27.354 L72.794,54.559 L127.205,54.559 L100,27.354 z" fill="#000000"/>
    <path d="M124.502,93.6 L190.882,93.6 L190.882,106.4 L124.502,106.4 L118.102,100 L124.502,93.6 z" fill="#000000"/>
    <path d="M100,106.4 L100,93.6 L190.882,93.6 L190.882,106.4 L100,106.4 z" fill="#00FDFF" display="none"/>
  </g>
  <g id="recreate_step_6">
    <path d="M0,0 L200,0 L200,200 L0,200 L0,0 z" fill="#FFFB00" display="none"/>
    <path d="M67.359,106.4 L67.359,132.641 L145.441,132.642 L145.441,145.441 L145.441,145.441 L145.441,145.441 L145.441,145.442 L145.44,145.442 L100,190.882 L9.118,100 L100,9.118 L109.118,18.236 L109.118,18.236 L145.441,54.559 L145.43,54.569 L145.441,54.569 L145.441,67.369 L67.359,67.359 L67.359,93.6 L105.302,93.6 L105.302,106.4 L67.359,106.4 z M127.205,145.441 L72.795,145.441 L100,172.646 L127.205,145.441 z M54.559,72.795 L27.353,100 L54.559,127.205 L54.559,72.795 z M100,27.354 L72.794,54.559 L127.205,54.559 L100,27.354 z" fill="#000000"/>
    <path d="M118.102,106.4 L118.102,93.6 L124.502,93.6 L124.502,93.6 L190.882,93.6 L190.882,106.4 L118.102,106.4 z" fill="#000000"/>
    <text transform="matrix(1, 0, 0, 1, 113.962, 78.946)" display="none">
      <tspan x="-31.931" y="11.5" font-family="EurostileBold" font-size="31" fill="#000000">SCSI</tspan>
    </text>
    <text transform="matrix(1, 0, 0, 1, 113.962, 117.946)" display="none">
      <tspan x="-31.18" y="11.5" font-family="EurostileBold" font-size="31" fill="#000000">E</tspan>
      <tspan x="-14.439" y="11.5" font-family="EurostileBold" font-size="31" kerning="-1" fill="#000000">M</tspan>
      <tspan x="12.352" y="11.5" font-family="EurostileBold" font-size="31" kerning="-2" fill="#000000">U</tspan>
    </text>
  </g>
  <g id="Layer_7"/>
</svg>
