<?xml version="1.0" encoding="UTF-8"?>
<!DOCTYPE svg PUBLIC "-//W3C//DTD SVG 1.1//EN" "http://www.w3.org/Graphics/SVG/1.1/DTD/svg11.dtd">
<svg version="1.1" xmlns="http://www.w3.org/2000/svg" xmlns:xlink="http://www.w3.org/1999/xlink" x="0" y="0" width="173" height="181" viewBox="0, 0, 173, 181">
  <g id="g3">
    <path d="M90,0.5 C90,0.5 144,54.101 144,54.101 C144,54.76 135,62.997 135,62.997 L83.618,63.043 L83.618,84.1 L108.5,84.1 L108.5,96.9 L83.618,96.9 L83.618,117.446 L134.828,117.453 C134.828,117.453 144,126.5 144,126.5 L90,180.5 C90,180.5 0,90.5 0,90.5 C0,90.5 90,0.5 90,0.5 z M90,18.191 C90,18.191 18,90.5 18,90.5 C18,90.5 90,162.5 90,162.5 L122.249,130.251 L70.818,130.251 L70.818,50.22 L83.618,50.22 L83.618,50.238 L122.173,50.225 C111.449,39.546 100.723,28.87 90,18.191 z" fill="#000000"/>
    <path d="M121.387,96.9 L121.387,84.1 L172.5,84.1 L172.5,96.9 L121.387,96.9 z" fill="#000000"/>
  </g>
</svg>
